# xmcd
#
# Track frame offsets:
#	150
#	13277
#	32275
#	53807
#	71242
#	87431
#	110027
#	130263
#	147695
#	170563
#	191431
#	218296
#	235186
#	262638
#	285269
#	299390
#	318750
#	341865
#
# Disc length: 4799 seconds
#
# Revision: 0
# Processed by: cddbd v1.5.2PL0 Copyright (c) Steve Scherf et al.
# Submitted via: EasyCDDAExtractor 11.9.9.666
#
DISCID=0a12bd12
DTITLE=Various Artist - Fear Candy 45 A
DYEAR=2007
DGENRE=Metal
TTITLE0=Obituary - Evil Ways
TTITLE1=Blood Red Throne - Taste Of God
TTITLE2=Amorphis  - The White Swan
TTITLE3=Epica - Chasing The Dragon
TTITLE4=Divine Heresy - Failed Creation
TTITLE5=Tankard - Empty
TTITLE6=Evile - Enter The Grave
TTITLE7=Hellish Crossfire - Conquerors Of Black Souls
TTITLE8=Will Haven - Helena
TTITLE9=Gutworm - Scrape The Blood
TTITLE10=Centurions Ghost - In Defiance
TTITLE11=The Grieving Process - The Opposing View
TTITLE12=Alcest - Souvenirs D Un Autre Monde
TTITLE13=Sepia Dreamer - Capitulation (Edit)
TTITLE14=Hurtlocker - Let Them Die
TTITLE15=Ride The Sky - A Smile From Heaven s Eye
TTITLE16=Mekong Delta - Purification
TTITLE17=Potergeist - Race You To The Grave
EXTD=
EXTT0=
EXTT1=
EXTT2=
EXTT3=
EXTT4=
EXTT5=
EXTT6=
EXTT7=
EXTT8=
EXTT9=
EXTT10=
EXTT11=
EXTT12=
EXTT13=
EXTT14=
EXTT15=
EXTT16=
EXTT17=
PLAYORDER=
